Coordinates
version=1
nRows=26
nColumns=24
inDegrees=yes

Units are S.I. units (second, meters, Newtons, ...)
Angles are in degrees.

endheader
time	pelvis_tilt	pelvis_list	pelvis_rotation	pelvis_tx	pelvis_ty	pelvis_tz	hip_flexion_r	hip_adduction_r	hip_rotation_r	knee_angle_r	ankle_angle_r	subtalar_angle_r	mtp_angle_r	hip_flexion_l	hip_adduction_l	hip_rotation_l	knee_angle_l	ankle_angle_l	subtalar_angle_l	mtp_angle_l	lumbar_extension	lumbar_bending	lumbar_rotation
      3.26500000	    -11.67218981	     -2.38490946	     -6.39504423	     -1.38771561	     -0.01506870	     -0.26635833	      5.00145207	      6.44826700	      4.73695235	     -7.31771922	      5.19567203	     -8.72157076	      9.66239919	     38.57178528	     -6.75013584	     -7.51887927	    -47.36243666	     -6.95717034	     -8.05403372	     21.05971781	      4.94221041	      4.19179844	      5.06420098
      3.27000000	    -11.73675048	     -2.28489618	     -6.53862876	     -1.38074026	     -0.01591189	     -0.26616724	      4.52606251	      6.31943593	      4.80267483	     -7.12046282	      5.44454513	     -8.67053099	      9.73321784	     38.94704240	     -6.69545469	     -7.42298029	    -45.88269594	     -6.87938541	     -7.58152527	     21.11370637	      4.96782403	      4.07703110	      5.16971962
      3.27500000	    -11.67693844	     -2.18530479	     -6.72126702	     -1.37378596	     -0.01665881	     -0.26592491	      3.92374468	      6.17569256	      4.84421188	     -6.93424488	      5.74317462	     -8.50286249	      9.88678829	     39.13541331	     -6.67342332	     -7.38505583	    -44.34588810	     -6.75741206	     -7.04495560	     21.19677326	      4.85509076	      3.94853764	      5.39752337
      3.28000000	    -11.72119139	     -2.09620836	     -6.88283033	     -1.36681210	     -0.01757440	     -0.26571619	      3.44753007	      6.05701378	      4.86974953	     -6.77614619	      6.01404569	     -8.40406228	      9.99956529	     39.41830671	     -6.66024028	     -7.31079942	    -42.78117899	     -6.63425320	     -6.51394497	     21.20250180	      4.85968601	      3.84202484	      5.55266919
      3.28500000	    -11.76775032	     -1.99971324	     -7.02663966	     -1.35983873	     -0.01851355	     -0.26551573	      2.97956844	      5.92932160	      4.86309784	     -6.62433637	      6.27934729	     -8.30016368	     10.10869309	     39.67544439	     -6.64006611	     -7.23635662	    -41.17619229	     -6.55265634	     -5.99180689	     21.14043170	      4.86964012	      3.72299145	      5.69178887
      3.29000000	    -11.83242436	     -1.90171001	     -7.15735962	     -1.35288946	     -0.01949724	     -0.26533485	      2.54793820	      5.80406047	      4.81697952	     -6.49919316	      6.53621054	     -8.20998607	     10.20814719	     39.92236279	     -6.61678126	     -7.14808815	    -39.53326363	     -6.48475211	     -5.49602341	     21.03039154	      4.89579826	      3.60161091	      5.81387830
      3.29500000	    -11.82333372	     -1.78880488	     -7.30634034	     -1.34599820	     -0.02041491	     -0.26513900	      2.06845340	      5.65534621	      4.67566819	     -6.42120422	      6.84420286	     -8.01130818	     10.37226063	     40.04329893	     -6.58819762	     -7.08370566	    -37.84924025	     -6.36929175	     -5.02441650	     20.76871697	      4.83019547	      3.45423666	      5.99832710
      3.30000000	    -11.85339106	     -1.67221580	     -7.41698602	     -1.33907487	     -0.02139008	     -0.26496949	      1.63038577	      5.50655629	      4.46551520	     -6.34006200	      7.13324240	     -7.80932528	     10.56087459	     40.18646912	     -6.54526908	     -7.00910834	    -36.15189467	     -6.27698024	     -4.60229249	     20.34327593	      4.81626517	      3.29822310	      6.12105152
      3.30500000	    -11.90236551	     -1.55860611	     -7.51954349	     -1.33215181	     -0.02240113	     -0.26479818	      1.21853344	      5.36719352	      4.21624457	     -6.26759462	      7.40271665	     -7.61485846	     10.75135772	     40.32621368	     -6.51177891	     -6.94294934	    -34.45145125	     -6.17888895	     -4.23004343	     19.82495049	      4.82243712	      3.14540691	      6.23654071
      3.31000000	    -12.05663522	     -1.48795119	     -7.59627097	     -1.32526982	     -0.02357008	     -0.26459050	      0.91986390	      5.30515086	      4.02447480	     -6.20328964	      7.56830704	     -7.64581768	     10.80048972	     40.58026184	     -6.53052950	     -6.83529447	    -32.77023089	     -6.15710290	     -3.91381323	     19.62648607	      4.93092712	      3.03852579	      6.29605468
      3.31500000	    -12.00902716	     -1.34137579	     -7.70423366	     -1.31834950	     -0.02444978	     -0.26442040	      0.43114704	      5.11528666	      3.60133200	     -6.16825994	      7.89385424	     -7.24401947	     10.99712726	     40.54793362	     -6.46952576	     -6.83313270	    -31.04934194	     -6.10442982	     -3.76719440	     18.95977933	      4.83458778	      2.83192460	      6.45784547
      3.32000000	    -12.05657435	     -1.22599750	     -7.75613572	     -1.31140420	     -0.02547510	     -0.26430466	      0.04270554	      4.97769413	      3.14963955	     -6.13786166	      8.14822842	     -6.96619859	     11.18702802	     40.63162564	     -6.41559431	     -6.76142273	    -29.39621548	     -6.02740813	     -3.64956252	     18.09886436	      4.84072866	      2.65934903	      6.52866597
      3.32500000	    -12.10809792	     -1.11983915	     -7.83524085	     -1.30447708	     -0.02650579	     -0.26411748	     -0.33139116	      4.85991844	      2.74037123	     -6.12597387	      8.35229585	     -6.75840031	     11.34334102	     40.70816441	     -6.40396618	     -6.73753400	    -27.79581407	     -5.93065867	     -3.56826063	     17.23022393	      4.84355520	      2.49845652	      6.63976937
      3.33000000	    -12.16479002	     -1.03080024	     -7.88973760	     -1.29752354	     -0.02755807	     -0.26399198	     -0.69457978	      4.75905093	      2.28962723	     -6.13067234	      8.53758111	     -6.55059865	     11.47055426	     40.79188976	     -6.39386179	     -6.69925389	    -26.25781163	     -5.85468002	     -3.57927195	     16.36689203	      4.85189846	      2.35388937	      6.72195600
      3.33500000	    -12.18285540	     -0.94683802	     -7.90159474	     -1.29045310	     -0.02859199	     -0.26387550	     -1.10304821	      4.65537944	      1.71290344	     -6.14118235	      8.73482245	     -6.23247380	     11.65413115	     40.84313114	     -6.37312243	     -6.69443422	    -24.83757055	     -5.57978924	     -3.45140161	     14.96042966	      4.83794269	      2.19069378	      6.74661589
      3.34000000	    -12.34071648	     -0.85772814	     -8.01071235	     -1.28342464	     -0.02975789	     -0.26361501	     -1.33888996	      4.58358369	      1.47459104	     -6.18970662	      8.78532413	     -6.30044472	     11.65952601	     41.02588037	     -6.43332377	     -6.78209039	    -23.42556629	     -5.64548433	     -3.66477982	     14.62872128	      4.96460915	      2.05030946	      6.88367571
      3.34500000	    -12.25759418	     -0.74355592	     -8.00521757	     -1.27621759	     -0.03065604	     -0.26363497	     -1.82895392	      4.41239025	      0.77990155	     -6.25497958	      9.00906239	     -5.79684399	     11.82353032	     40.94483431	     -6.34836591	     -6.84428128	    -22.11801952	     -5.43749550	     -3.79733106	     13.23849921	      4.85691760	      1.85498920	      6.91508447
      3.35000000	    -12.40390637	     -0.64013485	     -8.12656377	     -1.26906615	     -0.03179432	     -0.26343692	     -2.04212468	      4.30832502	      0.57757050	     -6.37727534	      9.02762596	     -5.84386678	     11.83445794	     41.10614872	     -6.40170233	     -7.01756500	    -20.86902744	     -5.49026108	     -4.08043985	     12.83841875	      4.98581825	      1.70889072	      7.08066691
      3.35500000	    -12.31849603	     -0.48122078	     -8.09792106	     -1.26165778	     -0.03268367	     -0.26350232	     -2.50652113	      4.07560305	     -0.10310102	     -6.50369389	      9.21551820	     -5.34971814	     12.08645393	     41.01359563	     -6.25743668	     -7.10065596	    -19.75845979	     -5.06845013	     -4.09003965	     10.69947935	      4.90774711	      1.45307322	      7.09858537
      3.36000000	    -12.44496208	     -0.38664841	     -8.23747861	     -1.25438986	     -0.03378722	     -0.26335387	     -2.70382850	      3.96351284	     -0.26507922	     -6.70248412	      9.17396235	     -5.41010344	     12.09541710	     41.15720075	     -6.33326540	     -7.45714650	    -18.70200846	     -5.11104001	     -4.39298339	     10.37673272	      5.02373818	      1.32162731	      7.27164922
      3.36500000	    -12.46940691	     -0.20916682	     -8.32423245	     -1.24689243	     -0.03475223	     -0.26331834	     -3.00306817	      3.72238622	     -0.53160600	     -6.92042618	      9.19575914	     -5.27129425	     12.15386125	     41.15434380	     -6.27814241	     -7.85471889	    -17.68733672	     -5.09106644	     -4.60793413	      9.91717736	      5.07582659	      1.08725736	      7.39446667
      3.37000000	    -12.41443105	     -0.03890426	     -8.33218738	     -1.23931399	     -0.03561516	     -0.26355307	     -3.36704183	      3.44435652	     -1.06989632	     -7.16706700	      9.21801633	     -4.85178811	     12.76246397	     41.08703833	     -6.12753422	     -8.07978809	    -16.89777620	     -4.39081204	     -4.50776195	      6.60165226	      5.04532859	      0.85454439	      7.46506746
      3.37500000	    -12.47339238	      0.12437254	     -8.41736953	     -1.23164406	     -0.03661278	     -0.26354759	     -3.59832438	      3.21156528	     -1.22972698	     -7.46022999	      9.13601380	     -4.82546772	     12.78423216	     41.12014786	     -6.09677755	     -8.63645707	    -16.08338997	     -4.34387484	     -4.53559828	      6.47087533	      5.15451538	      0.63892093	      7.57737614
      3.38000000	    -12.35399717	      0.31693054	     -8.53221577	     -1.22393928	     -0.03734507	     -0.26361978	     -3.98676688	      2.88839782	     -1.50263307	     -7.80137228	      9.10405608	     -4.50775374	     12.94361665	     40.91731099	     -6.02090572	     -9.28083201	    -15.31479084	     -4.23485014	     -4.48838353	      6.10267641	      5.07314250	      0.38112991	      7.75680230
      3.38500000	    -12.35588590	      0.51305083	     -8.63547590	     -1.21604449	     -0.03823270	     -0.26376095	     -4.23316934	      2.56974516	     -1.70314141	     -8.18249131	      9.02305229	     -4.26709773	     13.10163584	     40.84411316	     -5.93910823	     -9.93477817	    -14.65757612	     -4.08969827	     -4.40475590	      5.78876673	      5.15502359	      0.14462814	      7.92308247
      3.39000000	    -12.32703172	      0.70688523	     -8.72107172	     -1.20806046	     -0.03906701	     -0.26397077	     -4.49957617	      2.23464071	     -1.90769287	     -8.59439258	      8.90468781	     -3.98871672	     13.29482077	     40.72715401	     -5.83851674	    -10.63515672	    -14.08982427	     -3.91417865	     -4.20723863	      5.49778802	      5.21217274	     -0.09153711	      8.05097472
